<svg width="14" height="18" viewBox="0 0 14 18" fill="none" xmlns="http://www.w3.org/2000/svg">
<path d="M12.7727 7.56836C12.7727 6.10364 12.1909 4.69891 11.1552 3.6632C10.1194 2.62749 8.71472 2.04563 7.25 2.04563C5.78528 2.04563 4.38055 2.62749 3.34484 3.6632C2.30913 4.69891 1.72727 6.10364 1.72727 7.56836C1.72727 9.83391 3.53995 12.7867 7.25 16.3237C10.96 12.7867 12.7727 9.83391 12.7727 7.56836ZM7.25 18.0002C2.74959 13.9097 0.5 10.4316 0.5 7.56836C0.5 5.77815 1.21116 4.06126 2.47703 2.79539C3.7429 1.52952 5.45979 0.818359 7.25 0.818359C9.04021 0.818359 10.7571 1.52952 12.023 2.79539C13.2888 4.06126 14 5.77815 14 7.56836C14 10.4316 11.7504 13.9097 7.25 18.0002Z" fill="#4695D8"/>
<path d="M7.25031 9.40714C7.73855 9.40714 8.20679 9.21319 8.55203 8.86795C8.89727 8.52271 9.09122 8.05447 9.09122 7.56623C9.09122 7.07799 8.89727 6.60975 8.55203 6.26451C8.20679 5.91927 7.73855 5.72532 7.25031 5.72532C6.76207 5.72532 6.29383 5.91927 5.94859 6.26451C5.60335 6.60975 5.4094 7.07799 5.4094 7.56623C5.4094 8.05447 5.60335 8.52271 5.94859 8.86795C6.29383 9.21319 6.76207 9.40714 7.25031 9.40714ZM7.25031 10.6344C6.43658 10.6344 5.65617 10.3112 5.08078 9.73576C4.50538 9.16037 4.18213 8.37996 4.18213 7.56623C4.18213 6.7525 4.50538 5.97209 5.08078 5.3967C5.65617 4.8213 6.43658 4.49805 7.25031 4.49805C8.06404 4.49805 8.84445 4.8213 9.41984 5.3967C9.99524 5.97209 10.3185 6.7525 10.3185 7.56623C10.3185 8.37996 9.99524 9.16037 9.41984 9.73576C8.84445 10.3112 8.06404 10.6344 7.25031 10.6344Z" fill="#4695D8"/>
</svg>
