<svg width="18" height="15" fill="none" xmlns="http://www.w3.org/2000/svg"><path d="M.68 4.577c0-.508.096-.986.29-1.433.194-.436.457-.82.79-1.153a3.732 3.732 0 0 1 1.17-.79c.448-.193.925-.29 1.434-.29h9.29c.509 0 .987.097 1.434.29a3.733 3.733 0 0 1 1.96 1.943c.194.447.29.925.29 1.433v3.884a.558.558 0 0 1-.172.408.558.558 0 0 1-.408.172.574.574 0 0 1-.58-.58V5.52l-6.86 3.43a.68.68 0 0 1-.617 0L1.84 5.52v3.393c0 .448.003.832.01 1.153.005.32.02.602.045.844.012.242.036.441.072.598.036.158.085.297.145.418.121.23.276.438.463.626.188.187.402.342.644.463.121.06.26.111.418.154.157.042.357.07.599.082.241.024.523.036.843.036h6.252c.157 0 .293.057.408.172a.558.558 0 0 1 .173.408.574.574 0 0 1-.58.58H6.195l-1.143.001c-.339 0-.641-.012-.907-.036a5.597 5.597 0 0 1-.771-.118 3.052 3.052 0 0 1-.681-.245 3.312 3.312 0 0 1-.935-.671 4.056 4.056 0 0 1-.68-.926 2.752 2.752 0 0 1-.236-.68A6.765 6.765 0 0 1 .734 11a12.61 12.61 0 0 1-.045-.907c-.006-.339-.01-.72-.01-1.143V4.577Zm1.197-.345L9.01 7.807l7.132-3.575a2.462 2.462 0 0 0-.826-1.533 2.405 2.405 0 0 0-1.66-.626H4.364c-.642 0-1.195.209-1.66.626a2.462 2.462 0 0 0-.827 1.533ZM14.4 9.586a.606.606 0 0 1 .417-.164c.157 0 .297.055.418.164l1.96 1.96-1.96 1.96a.574.574 0 0 1-.418.181.574.574 0 0 1-.417-.181.554.554 0 0 1-.163-.409c0-.163.054-.3.163-.408l.562-.563h-2.849a.565.565 0 0 1-.417-.163.565.565 0 0 1-.163-.417.574.574 0 0 1 .58-.581h2.85l-.563-.544a.606.606 0 0 1-.163-.418c0-.157.054-.296.163-.417Z" fill="#fff"/></svg>