<?xml version="1.0" encoding="UTF-8"?><!DOCTYPE svg PUBLIC "-//W3C//DTD SVG 1.1//EN" "http://www.w3.org/Graphics/SVG/1.1/DTD/svg11.dtd"><svg xmlns="http://www.w3.org/2000/svg" xmlns:xlink="http://www.w3.org/1999/xlink"><defs>
<clipPath id="clip0_414_16884">
<rect width="8" height="8" transform="matrix(1 0 0 -1 0.0800781 8)"/>
</clipPath>
</defs><symbol id="arrow-right" viewBox="0 0 9 8">
<g clip-path="url(#clip0_414_16884)">
<path d="M0.298828 7.53125C0.152995 7.38542 0.0800781 7.20833 0.0800781 7C0.0800781 6.79167 0.152995 6.61458 0.298828 6.46875L2.76758 4L0.298828 1.53125C0.152995 1.38542 0.0800781 1.20833 0.0800781 1C0.0800781 0.791667 0.152995 0.614583 0.298828 0.46875C0.444661 0.322917 0.621745 0.25 0.830078 0.25C1.03841 0.25 1.21549 0.322917 1.36133 0.46875L4.36133 3.46875C4.50716 3.61458 4.58008 3.79167 4.58008 4C4.58008 4.20833 4.50716 4.38542 4.36133 4.53125L1.36133 7.53125C1.21549 7.67708 1.03841 7.75 0.830078 7.75C0.621745 7.75 0.444661 7.67708 0.298828 7.53125Z" fill="#0E0F19"/>
</g>

</symbol><symbol id="arrow" viewBox="0 0 16 16"><g fill="none">
<path d="M12 4L3 4" stroke="#0E0F19" stroke-width="1.5" stroke-linecap="round" stroke-linejoin="round"/>
<path d="M9.70703 1L12.7197 3.99975L9.70703 7" stroke="#0E0F19" stroke-width="1.5" stroke-linecap="round" stroke-linejoin="round"/>
<path d="M4 12H13" stroke="#0E0F19" stroke-width="1.5" stroke-linecap="round" stroke-linejoin="round"/>
<path d="M6.29297 15L3.28027 12.0002L6.29297 9" stroke="#0E0F19" stroke-width="1.5" stroke-linecap="round" stroke-linejoin="round"/>
</g></symbol><symbol id="check"><path d="M11.5 29.44.115 18.053l5.189-5.188L11.5 19.08 29.614.949l5.188 5.189L11.5 29.439Z"/></symbol><symbol id="close" viewBox="0 0 16 16"><g fill="none">
<path d="M14 14L2 2" stroke="#A0A2B4" stroke-width="1.5" stroke-linecap="round" stroke-linejoin="round"/>
<path d="M2.00098 14L14.001 2" stroke="#A0A2B4" stroke-width="1.5" stroke-linecap="round" stroke-linejoin="round"/>
</g></symbol><symbol id="geo" viewBox="0 0 24 24"><g fill="none">
<path fill-rule="evenodd" clip-rule="evenodd" d="M14.5 10.5005C14.5 9.11924 13.3808 8 12.0005 8C10.6192 8 9.5 9.11924 9.5 10.5005C9.5 11.8808 10.6192 13 12.0005 13C13.3808 13 14.5 11.8808 14.5 10.5005Z" stroke="#CACACA" stroke-width="1.5" stroke-linecap="round" stroke-linejoin="round"/>
<path fill-rule="evenodd" clip-rule="evenodd" d="M11.9995 21C10.801 21 4.5 15.8984 4.5 10.5633C4.5 6.38664 7.8571 3 11.9995 3C16.1419 3 19.5 6.38664 19.5 10.5633C19.5 15.8984 13.198 21 11.9995 21Z" stroke="#CACACA" stroke-width="1.5" stroke-linecap="round" stroke-linejoin="round"/>
</g></symbol><symbol id="letter" viewBox="0 0 18 15"><g fill="none">
<path id="Vector" d="M0.679688 4.57725C0.679688 4.06914 0.776471 3.59127 0.970039 3.14364C1.16361 2.70811 1.42674 2.324 1.75943 1.99131C2.09213 1.65861 2.48229 1.39548 2.92992 1.20191C3.37754 1.00834 3.85541 0.911559 4.36353 0.911559H13.6548C14.1629 0.911559 14.6408 1.00834 15.0884 1.20191C15.536 1.39548 15.9262 1.65861 16.2589 1.99131C16.5916 2.324 16.8547 2.70811 17.0483 3.14364C17.2418 3.59127 17.3386 4.06914 17.3386 4.57725V8.46071C17.3386 8.61798 17.2812 8.75409 17.1662 8.86902C17.0513 8.98395 16.9152 9.04141 16.7579 9.04141C16.5886 9.04141 16.4494 8.98395 16.3405 8.86902C16.2317 8.75409 16.1772 8.61798 16.1772 8.46071V5.5209L9.31766 8.95068C9.22087 8.99907 9.11804 9.02327 9.00916 9.02327C8.90028 9.02327 8.79744 8.99907 8.70066 8.95068L1.8411 5.5209V8.91438C1.8411 9.36201 1.84412 9.74612 1.85017 10.0667C1.85622 10.3873 1.87134 10.6686 1.89554 10.9106C1.90763 11.1525 1.93183 11.3521 1.96812 11.5094C2.00442 11.6667 2.05281 11.8058 2.1133 11.9268C2.23428 12.1566 2.38853 12.3653 2.57605 12.5529C2.76357 12.7404 2.97831 12.8946 3.22027 13.0156C3.34125 13.0761 3.48037 13.1275 3.63765 13.1699C3.79492 13.2122 3.99454 13.2394 4.2365 13.2515C4.47846 13.2757 4.75974 13.2878 5.08033 13.2878C5.40093 13.2878 5.77899 13.2878 6.21452 13.2878H11.332C11.4892 13.2878 11.6254 13.3453 11.7403 13.4602C11.8552 13.5751 11.9127 13.7112 11.9127 13.8685C11.9127 14.0379 11.8552 14.177 11.7403 14.2859C11.6254 14.3948 11.4892 14.4492 11.332 14.4492H6.19637C5.77294 14.4492 5.39186 14.4492 5.05311 14.4492C4.71437 14.4492 4.41192 14.4371 4.14576 14.4129C3.86751 14.3887 3.61043 14.3494 3.37452 14.295C3.13861 14.2405 2.91177 14.1589 2.694 14.05C2.34316 13.8806 2.03164 13.6568 1.75943 13.3785C1.48723 13.1003 1.26039 12.7918 1.07892 12.453C0.970039 12.2353 0.891402 12.0084 0.84301 11.7725C0.794618 11.5366 0.758324 11.2795 0.734128 11.0013C0.709932 10.7351 0.69481 10.4327 0.688761 10.0939C0.682712 9.7552 0.679688 9.37411 0.679688 8.95068V4.57725ZM1.87739 4.23246L9.00916 7.80742L16.1409 4.23246C16.0562 3.62756 15.781 3.11642 15.3152 2.69904C14.8495 2.28166 14.296 2.07297 13.6548 2.07297H4.36353C3.72233 2.07297 3.16885 2.28166 2.70308 2.69904C2.2373 3.11642 1.96208 3.62756 1.87739 4.23246ZM14.3988 9.58582C14.5198 9.47694 14.6589 9.4225 14.8162 9.4225C14.9735 9.4225 15.1126 9.47694 15.2336 9.58582L17.1935 11.5457L15.2336 13.5056C15.1126 13.6266 14.9735 13.687 14.8162 13.687C14.6589 13.687 14.5198 13.6266 14.3988 13.5056C14.2899 13.3967 14.2355 13.2606 14.2355 13.0973C14.2355 12.9339 14.2899 12.7978 14.3988 12.689L14.9614 12.1264H12.1123C11.9429 12.1264 11.8038 12.072 11.6949 11.9631C11.586 11.8542 11.5316 11.7151 11.5316 11.5457C11.5316 11.3884 11.586 11.2523 11.6949 11.1374C11.8038 11.0225 11.9429 10.965 12.1123 10.965H14.9614L14.3988 10.4206C14.2899 10.2996 14.2355 10.1605 14.2355 10.0032C14.2355 9.84593 14.2899 9.7068 14.3988 9.58582Z" fill="white"/>
</g></symbol><symbol id="message" viewBox="0 0 17 17"><g fill="none">
<path id="Vector" d="M13.7021 3.61719C13.0005 2.91551 12.2141 2.38924 11.343 2.0384C10.4599 1.68756 9.55858 1.51214 8.63913 1.51214C7.71969 1.51214 6.81839 1.68756 5.93523 2.0384C5.06418 2.38924 4.27781 2.91551 3.57612 3.61719C3.03171 4.1616 2.59013 4.7665 2.25139 5.43189C1.92474 6.08518 1.70093 6.76569 1.57995 7.47343C1.45897 8.18116 1.44687 8.89797 1.54366 9.62385C1.64044 10.3376 1.84006 11.0272 2.14251 11.6926C2.14251 11.7047 2.14251 11.7108 2.14251 11.7108C2.14251 11.7108 2.14856 11.7168 2.16066 11.7289V11.747C2.24534 11.9406 2.32398 12.1463 2.39657 12.364C2.46915 12.5818 2.50545 12.8056 2.50545 13.0355C2.50545 13.1928 2.4873 13.347 2.45101 13.4982C2.41471 13.6495 2.37842 13.7916 2.34213 13.9247C2.31793 13.9973 2.29676 14.0668 2.27861 14.1334C2.26046 14.1999 2.23929 14.2634 2.2151 14.3239L2.19695 14.3421C2.18485 14.4026 2.16973 14.46 2.15158 14.5145C2.13343 14.5689 2.11831 14.6203 2.10621 14.6687C2.06992 14.7776 2.0427 14.8744 2.02455 14.9591C2.00641 15.0437 1.99733 15.1103 1.99733 15.1587C1.99733 15.2071 2.00036 15.2403 2.00641 15.2585C2.01245 15.2766 2.02153 15.2857 2.03363 15.2857C2.03363 15.2978 2.0427 15.3069 2.06085 15.3129C2.07899 15.319 2.11226 15.322 2.16066 15.322C2.20905 15.322 2.27559 15.3129 2.36027 15.2948C2.44496 15.2766 2.54174 15.2494 2.65062 15.2131C2.69902 15.201 2.75043 15.1859 2.80487 15.1678C2.85931 15.1496 2.91678 15.1284 2.97727 15.1042H2.99542C3.05591 15.08 3.11942 15.0589 3.18596 15.0407C3.2525 15.0226 3.32206 15.0014 3.39465 14.9772C3.51563 14.9409 3.65173 14.9046 3.80296 14.8683C3.95418 14.832 4.10843 14.8139 4.26571 14.8139H4.28385C4.50162 14.8139 4.71938 14.8502 4.93715 14.9228C5.15491 14.9954 5.36058 15.074 5.55414 15.1587C5.55414 15.1587 5.56019 15.1587 5.57229 15.1587C5.58439 15.1587 5.59044 15.1587 5.59044 15.1587C5.60254 15.1708 5.60858 15.1768 5.60858 15.1768C5.60858 15.1768 5.61463 15.1768 5.62673 15.1768C6.28002 15.4793 6.96961 15.6789 7.69549 15.7757C8.40927 15.8725 9.12305 15.8604 9.83684 15.7394C10.5506 15.6184 11.2342 15.3946 11.8874 15.0679C12.5528 14.7292 13.1577 14.2876 13.7021 13.7432C14.4038 13.0415 14.9301 12.2552 15.2809 11.3841C15.6318 10.501 15.8072 9.59965 15.8072 8.6802C15.8072 7.76075 15.6318 6.85945 15.2809 5.9763C14.9301 5.10524 14.4038 4.31887 13.7021 3.61719ZM2.75951 2.80058C3.57007 1.97791 4.48347 1.36696 5.4997 0.967728C6.52803 0.556396 7.57451 0.350731 8.63913 0.350731C9.70376 0.350731 10.7502 0.556396 11.7786 0.967728C12.7948 1.36696 13.7082 1.97791 14.5188 2.80058C15.3414 3.61114 15.9524 4.52454 16.3516 5.54077C16.7629 6.5691 16.9686 7.61558 16.9686 8.6802C16.9686 9.74483 16.7629 10.7913 16.3516 11.8196C15.9403 12.8359 15.3293 13.7493 14.5188 14.5598C13.8897 15.201 13.188 15.7152 12.4137 16.1023C11.6515 16.4895 10.8591 16.7526 10.0365 16.8917C9.21379 17.0308 8.38508 17.046 7.55031 16.9371C6.71555 16.8282 5.91708 16.5983 5.15491 16.2475C4.92505 16.1507 4.7466 16.0812 4.61957 16.0388C4.49254 15.9965 4.38064 15.9753 4.28385 15.9753C4.21127 15.9753 4.1296 15.9844 4.03887 16.0025C3.94813 16.0207 3.84228 16.0479 3.7213 16.0842C3.67291 16.1084 3.61846 16.1295 3.55797 16.1477C3.49748 16.1658 3.43699 16.181 3.3765 16.1931L3.34021 16.2112C3.29182 16.2354 3.23738 16.2566 3.17689 16.2747C3.1164 16.2929 3.05591 16.308 2.99542 16.3201C2.87444 16.3685 2.74136 16.4078 2.59618 16.438C2.45101 16.4683 2.30583 16.4834 2.16066 16.4834C2.00338 16.4834 1.84006 16.4562 1.67069 16.4017C1.50131 16.3473 1.35009 16.2535 1.21701 16.1205V16.1023C1.07184 15.9692 0.972027 15.818 0.917586 15.6486C0.863145 15.4793 0.835925 15.316 0.835925 15.1587C0.835925 15.0135 0.851047 14.8683 0.881292 14.7232C0.911537 14.578 0.950856 14.4449 0.999247 14.3239C1.01135 14.2634 1.02647 14.2029 1.04462 14.1424C1.06276 14.082 1.08393 14.0275 1.10813 13.9791C1.10813 13.967 1.10813 13.958 1.10813 13.9519C1.10813 13.9459 1.10813 13.9428 1.10813 13.9428C1.13233 13.8823 1.1535 13.8219 1.17164 13.7614C1.18979 13.7009 1.21096 13.6464 1.23516 13.598C1.27145 13.4771 1.29867 13.3712 1.31682 13.2805C1.33497 13.1897 1.34404 13.1081 1.34404 13.0355C1.34404 12.9387 1.32287 12.8268 1.28053 12.6998C1.23818 12.5727 1.16862 12.3943 1.07184 12.1644C0.720994 11.4023 0.491132 10.6038 0.38225 9.76902C0.273368 8.93426 0.28849 8.10555 0.427617 7.28288C0.566744 6.46022 0.829876 5.6678 1.21701 4.90563C1.60415 4.13136 2.11831 3.42967 2.75951 2.80058ZM10.9075 9.00685C10.9075 8.78908 10.9831 8.60459 11.1343 8.45336C11.2856 8.30214 11.4701 8.22653 11.6878 8.22653C11.9056 8.22653 12.0901 8.30214 12.2413 8.45336C12.3925 8.60459 12.4682 8.78908 12.4682 9.00685C12.4682 9.21251 12.3925 9.39096 12.2413 9.54218C12.0901 9.69341 11.9056 9.76902 11.6878 9.76902C11.4701 9.76902 11.2856 9.69341 11.1343 9.54218C10.9831 9.39096 10.9075 9.21251 10.9075 9.00685ZM7.80437 9.00685C7.80437 8.78908 7.87998 8.60459 8.03121 8.45336C8.18243 8.30214 8.36693 8.22653 8.58469 8.22653C8.80246 8.22653 8.98695 8.30214 9.13818 8.45336C9.2894 8.60459 9.36501 8.78908 9.36501 9.00685C9.36501 9.21251 9.2894 9.39096 9.13818 9.54218C8.98695 9.69341 8.80246 9.76902 8.58469 9.76902C8.36693 9.76902 8.18243 9.69341 8.03121 9.54218C7.87998 9.39096 7.80437 9.21251 7.80437 9.00685ZM4.70123 9.00685C4.70123 8.78908 4.77685 8.60459 4.92807 8.45336C5.0793 8.30214 5.26379 8.22653 5.48156 8.22653C5.69932 8.22653 5.88381 8.30214 6.03504 8.45336C6.18626 8.60459 6.26188 8.78908 6.26188 9.00685C6.26188 9.21251 6.18626 9.39096 6.03504 9.54218C5.88381 9.69341 5.69932 9.76902 5.48156 9.76902C5.26379 9.76902 5.0793 9.69341 4.92807 9.54218C4.77685 9.39096 4.70123 9.21251 4.70123 9.00685Z" fill="white"/>
</g></symbol><symbol id="modal-arrow" viewBox="0 0 212 10">
    <path d="M1 4.99999L211 4.99998M211 4.99998L207 0.999976M211 4.99998L207 8.99999" stroke-width="1.5" stroke-linecap="round" stroke-linejoin="round"/>
</symbol></svg>