<svg width="9" height="8" viewBox="0 0 9 8"  xmlns="http://www.w3.org/2000/svg">
<g clip-path="url(#clip0_414_16884)">
<path d="M0.298828 7.53125C0.152995 7.38542 0.0800781 7.20833 0.0800781 7C0.0800781 6.79167 0.152995 6.61458 0.298828 6.46875L2.76758 4L0.298828 1.53125C0.152995 1.38542 0.0800781 1.20833 0.0800781 1C0.0800781 0.791667 0.152995 0.614583 0.298828 0.46875C0.444661 0.322917 0.621745 0.25 0.830078 0.25C1.03841 0.25 1.21549 0.322917 1.36133 0.46875L4.36133 3.46875C4.50716 3.61458 4.58008 3.79167 4.58008 4C4.58008 4.20833 4.50716 4.38542 4.36133 4.53125L1.36133 7.53125C1.21549 7.67708 1.03841 7.75 0.830078 7.75C0.621745 7.75 0.444661 7.67708 0.298828 7.53125Z" fill="#0E0F19"/>
</g>
<defs>
<clipPath id="clip0_414_16884">
<rect width="8" height="8"  transform="matrix(1 0 0 -1 0.0800781 8)"/>
</clipPath>
</defs>
</svg>
