<svg width="18" height="15" viewBox="0 0 18 15" fill="none" xmlns="http://www.w3.org/2000/svg">
<path id="Vector" d="M0.679688 4.57725C0.679688 4.06914 0.776471 3.59127 0.970039 3.14364C1.16361 2.70811 1.42674 2.324 1.75943 1.99131C2.09213 1.65861 2.48229 1.39548 2.92992 1.20191C3.37754 1.00834 3.85541 0.911559 4.36353 0.911559H13.6548C14.1629 0.911559 14.6408 1.00834 15.0884 1.20191C15.536 1.39548 15.9262 1.65861 16.2589 1.99131C16.5916 2.324 16.8547 2.70811 17.0483 3.14364C17.2418 3.59127 17.3386 4.06914 17.3386 4.57725V8.46071C17.3386 8.61798 17.2812 8.75409 17.1662 8.86902C17.0513 8.98395 16.9152 9.04141 16.7579 9.04141C16.5886 9.04141 16.4494 8.98395 16.3405 8.86902C16.2317 8.75409 16.1772 8.61798 16.1772 8.46071V5.5209L9.31766 8.95068C9.22087 8.99907 9.11804 9.02327 9.00916 9.02327C8.90028 9.02327 8.79744 8.99907 8.70066 8.95068L1.8411 5.5209V8.91438C1.8411 9.36201 1.84412 9.74612 1.85017 10.0667C1.85622 10.3873 1.87134 10.6686 1.89554 10.9106C1.90763 11.1525 1.93183 11.3521 1.96812 11.5094C2.00442 11.6667 2.05281 11.8058 2.1133 11.9268C2.23428 12.1566 2.38853 12.3653 2.57605 12.5529C2.76357 12.7404 2.97831 12.8946 3.22027 13.0156C3.34125 13.0761 3.48037 13.1275 3.63765 13.1699C3.79492 13.2122 3.99454 13.2394 4.2365 13.2515C4.47846 13.2757 4.75974 13.2878 5.08033 13.2878C5.40093 13.2878 5.77899 13.2878 6.21452 13.2878H11.332C11.4892 13.2878 11.6254 13.3453 11.7403 13.4602C11.8552 13.5751 11.9127 13.7112 11.9127 13.8685C11.9127 14.0379 11.8552 14.177 11.7403 14.2859C11.6254 14.3948 11.4892 14.4492 11.332 14.4492H6.19637C5.77294 14.4492 5.39186 14.4492 5.05311 14.4492C4.71437 14.4492 4.41192 14.4371 4.14576 14.4129C3.86751 14.3887 3.61043 14.3494 3.37452 14.295C3.13861 14.2405 2.91177 14.1589 2.694 14.05C2.34316 13.8806 2.03164 13.6568 1.75943 13.3785C1.48723 13.1003 1.26039 12.7918 1.07892 12.453C0.970039 12.2353 0.891402 12.0084 0.84301 11.7725C0.794618 11.5366 0.758324 11.2795 0.734128 11.0013C0.709932 10.7351 0.69481 10.4327 0.688761 10.0939C0.682712 9.7552 0.679688 9.37411 0.679688 8.95068V4.57725ZM1.87739 4.23246L9.00916 7.80742L16.1409 4.23246C16.0562 3.62756 15.781 3.11642 15.3152 2.69904C14.8495 2.28166 14.296 2.07297 13.6548 2.07297H4.36353C3.72233 2.07297 3.16885 2.28166 2.70308 2.69904C2.2373 3.11642 1.96208 3.62756 1.87739 4.23246ZM14.3988 9.58582C14.5198 9.47694 14.6589 9.4225 14.8162 9.4225C14.9735 9.4225 15.1126 9.47694 15.2336 9.58582L17.1935 11.5457L15.2336 13.5056C15.1126 13.6266 14.9735 13.687 14.8162 13.687C14.6589 13.687 14.5198 13.6266 14.3988 13.5056C14.2899 13.3967 14.2355 13.2606 14.2355 13.0973C14.2355 12.9339 14.2899 12.7978 14.3988 12.689L14.9614 12.1264H12.1123C11.9429 12.1264 11.8038 12.072 11.6949 11.9631C11.586 11.8542 11.5316 11.7151 11.5316 11.5457C11.5316 11.3884 11.586 11.2523 11.6949 11.1374C11.8038 11.0225 11.9429 10.965 12.1123 10.965H14.9614L14.3988 10.4206C14.2899 10.2996 14.2355 10.1605 14.2355 10.0032C14.2355 9.84593 14.2899 9.7068 14.3988 9.58582Z" fill="white"/>
</svg>
