<svg width="17" height="17" viewBox="0 0 17 17" fill="none" xmlns="http://www.w3.org/2000/svg">
<path id="Vector" d="M13.7021 3.61719C13.0005 2.91551 12.2141 2.38924 11.343 2.0384C10.4599 1.68756 9.55858 1.51214 8.63913 1.51214C7.71969 1.51214 6.81839 1.68756 5.93523 2.0384C5.06418 2.38924 4.27781 2.91551 3.57612 3.61719C3.03171 4.1616 2.59013 4.7665 2.25139 5.43189C1.92474 6.08518 1.70093 6.76569 1.57995 7.47343C1.45897 8.18116 1.44687 8.89797 1.54366 9.62385C1.64044 10.3376 1.84006 11.0272 2.14251 11.6926C2.14251 11.7047 2.14251 11.7108 2.14251 11.7108C2.14251 11.7108 2.14856 11.7168 2.16066 11.7289V11.747C2.24534 11.9406 2.32398 12.1463 2.39657 12.364C2.46915 12.5818 2.50545 12.8056 2.50545 13.0355C2.50545 13.1928 2.4873 13.347 2.45101 13.4982C2.41471 13.6495 2.37842 13.7916 2.34213 13.9247C2.31793 13.9973 2.29676 14.0668 2.27861 14.1334C2.26046 14.1999 2.23929 14.2634 2.2151 14.3239L2.19695 14.3421C2.18485 14.4026 2.16973 14.46 2.15158 14.5145C2.13343 14.5689 2.11831 14.6203 2.10621 14.6687C2.06992 14.7776 2.0427 14.8744 2.02455 14.9591C2.00641 15.0437 1.99733 15.1103 1.99733 15.1587C1.99733 15.2071 2.00036 15.2403 2.00641 15.2585C2.01245 15.2766 2.02153 15.2857 2.03363 15.2857C2.03363 15.2978 2.0427 15.3069 2.06085 15.3129C2.07899 15.319 2.11226 15.322 2.16066 15.322C2.20905 15.322 2.27559 15.3129 2.36027 15.2948C2.44496 15.2766 2.54174 15.2494 2.65062 15.2131C2.69902 15.201 2.75043 15.1859 2.80487 15.1678C2.85931 15.1496 2.91678 15.1284 2.97727 15.1042H2.99542C3.05591 15.08 3.11942 15.0589 3.18596 15.0407C3.2525 15.0226 3.32206 15.0014 3.39465 14.9772C3.51563 14.9409 3.65173 14.9046 3.80296 14.8683C3.95418 14.832 4.10843 14.8139 4.26571 14.8139H4.28385C4.50162 14.8139 4.71938 14.8502 4.93715 14.9228C5.15491 14.9954 5.36058 15.074 5.55414 15.1587C5.55414 15.1587 5.56019 15.1587 5.57229 15.1587C5.58439 15.1587 5.59044 15.1587 5.59044 15.1587C5.60254 15.1708 5.60858 15.1768 5.60858 15.1768C5.60858 15.1768 5.61463 15.1768 5.62673 15.1768C6.28002 15.4793 6.96961 15.6789 7.69549 15.7757C8.40927 15.8725 9.12305 15.8604 9.83684 15.7394C10.5506 15.6184 11.2342 15.3946 11.8874 15.0679C12.5528 14.7292 13.1577 14.2876 13.7021 13.7432C14.4038 13.0415 14.9301 12.2552 15.2809 11.3841C15.6318 10.501 15.8072 9.59965 15.8072 8.6802C15.8072 7.76075 15.6318 6.85945 15.2809 5.9763C14.9301 5.10524 14.4038 4.31887 13.7021 3.61719ZM2.75951 2.80058C3.57007 1.97791 4.48347 1.36696 5.4997 0.967728C6.52803 0.556396 7.57451 0.350731 8.63913 0.350731C9.70376 0.350731 10.7502 0.556396 11.7786 0.967728C12.7948 1.36696 13.7082 1.97791 14.5188 2.80058C15.3414 3.61114 15.9524 4.52454 16.3516 5.54077C16.7629 6.5691 16.9686 7.61558 16.9686 8.6802C16.9686 9.74483 16.7629 10.7913 16.3516 11.8196C15.9403 12.8359 15.3293 13.7493 14.5188 14.5598C13.8897 15.201 13.188 15.7152 12.4137 16.1023C11.6515 16.4895 10.8591 16.7526 10.0365 16.8917C9.21379 17.0308 8.38508 17.046 7.55031 16.9371C6.71555 16.8282 5.91708 16.5983 5.15491 16.2475C4.92505 16.1507 4.7466 16.0812 4.61957 16.0388C4.49254 15.9965 4.38064 15.9753 4.28385 15.9753C4.21127 15.9753 4.1296 15.9844 4.03887 16.0025C3.94813 16.0207 3.84228 16.0479 3.7213 16.0842C3.67291 16.1084 3.61846 16.1295 3.55797 16.1477C3.49748 16.1658 3.43699 16.181 3.3765 16.1931L3.34021 16.2112C3.29182 16.2354 3.23738 16.2566 3.17689 16.2747C3.1164 16.2929 3.05591 16.308 2.99542 16.3201C2.87444 16.3685 2.74136 16.4078 2.59618 16.438C2.45101 16.4683 2.30583 16.4834 2.16066 16.4834C2.00338 16.4834 1.84006 16.4562 1.67069 16.4017C1.50131 16.3473 1.35009 16.2535 1.21701 16.1205V16.1023C1.07184 15.9692 0.972027 15.818 0.917586 15.6486C0.863145 15.4793 0.835925 15.316 0.835925 15.1587C0.835925 15.0135 0.851047 14.8683 0.881292 14.7232C0.911537 14.578 0.950856 14.4449 0.999247 14.3239C1.01135 14.2634 1.02647 14.2029 1.04462 14.1424C1.06276 14.082 1.08393 14.0275 1.10813 13.9791C1.10813 13.967 1.10813 13.958 1.10813 13.9519C1.10813 13.9459 1.10813 13.9428 1.10813 13.9428C1.13233 13.8823 1.1535 13.8219 1.17164 13.7614C1.18979 13.7009 1.21096 13.6464 1.23516 13.598C1.27145 13.4771 1.29867 13.3712 1.31682 13.2805C1.33497 13.1897 1.34404 13.1081 1.34404 13.0355C1.34404 12.9387 1.32287 12.8268 1.28053 12.6998C1.23818 12.5727 1.16862 12.3943 1.07184 12.1644C0.720994 11.4023 0.491132 10.6038 0.38225 9.76902C0.273368 8.93426 0.28849 8.10555 0.427617 7.28288C0.566744 6.46022 0.829876 5.6678 1.21701 4.90563C1.60415 4.13136 2.11831 3.42967 2.75951 2.80058ZM10.9075 9.00685C10.9075 8.78908 10.9831 8.60459 11.1343 8.45336C11.2856 8.30214 11.4701 8.22653 11.6878 8.22653C11.9056 8.22653 12.0901 8.30214 12.2413 8.45336C12.3925 8.60459 12.4682 8.78908 12.4682 9.00685C12.4682 9.21251 12.3925 9.39096 12.2413 9.54218C12.0901 9.69341 11.9056 9.76902 11.6878 9.76902C11.4701 9.76902 11.2856 9.69341 11.1343 9.54218C10.9831 9.39096 10.9075 9.21251 10.9075 9.00685ZM7.80437 9.00685C7.80437 8.78908 7.87998 8.60459 8.03121 8.45336C8.18243 8.30214 8.36693 8.22653 8.58469 8.22653C8.80246 8.22653 8.98695 8.30214 9.13818 8.45336C9.2894 8.60459 9.36501 8.78908 9.36501 9.00685C9.36501 9.21251 9.2894 9.39096 9.13818 9.54218C8.98695 9.69341 8.80246 9.76902 8.58469 9.76902C8.36693 9.76902 8.18243 9.69341 8.03121 9.54218C7.87998 9.39096 7.80437 9.21251 7.80437 9.00685ZM4.70123 9.00685C4.70123 8.78908 4.77685 8.60459 4.92807 8.45336C5.0793 8.30214 5.26379 8.22653 5.48156 8.22653C5.69932 8.22653 5.88381 8.30214 6.03504 8.45336C6.18626 8.60459 6.26188 8.78908 6.26188 9.00685C6.26188 9.21251 6.18626 9.39096 6.03504 9.54218C5.88381 9.69341 5.69932 9.76902 5.48156 9.76902C5.26379 9.76902 5.0793 9.69341 4.92807 9.54218C4.77685 9.39096 4.70123 9.21251 4.70123 9.00685Z" fill="white"/>
</svg>
