<svg width="9" height="8" fill="none" xmlns="http://www.w3.org/2000/svg"><g clip-path="url(#a)"><path d="M.299 7.531A.723.723 0 0 1 .08 7c0-.208.073-.385.219-.531L2.768 4 .298 1.531A.723.723 0 0 1 .08 1 .72.72 0 0 1 .3.469.723.723 0 0 1 .83.25c.208 0 .385.073.531.219l3 3a.723.723 0 0 1 .22.531.723.723 0 0 1-.22.531l-3 3a.723.723 0 0 1-.53.219.723.723 0 0 1-.532-.219Z" fill="#0E0F19"/></g><defs><clipPath id="a"><path fill="#fff" transform="matrix(1 0 0 -1 .08 8)" d="M0 0h8v8H0z"/></clipPath></defs></svg>