<svg width="17" height="17" fill="none" xmlns="http://www.w3.org/2000/svg"><path d="M13.702 3.617a7.032 7.032 0 0 0-2.359-1.579 7.265 7.265 0 0 0-2.704-.526c-.92 0-1.82.176-2.704.526a7.034 7.034 0 0 0-2.359 1.58 7.13 7.13 0 0 0-1.325 1.814 7.289 7.289 0 0 0-.671 2.041 7.112 7.112 0 0 0-.036 2.15c.096.715.296 1.404.599 2.07v.018l.018.018v.018c.084.194.163.4.236.617a2.11 2.11 0 0 1 .054 1.134c-.036.152-.073.294-.109.427a3.924 3.924 0 0 0-.063.208c-.019.067-.04.13-.064.19l-.018.02c-.012.06-.027.117-.045.171a2.093 2.093 0 0 0-.046.155 2.768 2.768 0 0 0-.081.29 1.016 1.016 0 0 0-.028.2c0 .048.003.081.01.1.005.018.015.027.027.027 0 .012.009.02.027.027a.366.366 0 0 0 .1.009c.048 0 .115-.01.2-.027a2.94 2.94 0 0 0 .29-.082 2.123 2.123 0 0 0 .326-.109h.018a1.77 1.77 0 0 1 .191-.063 7.617 7.617 0 0 1 .617-.172c.151-.037.305-.055.463-.055h.018c.218 0 .435.036.653.109.218.072.424.151.617.236h.036l.019.018h.018a7.14 7.14 0 0 0 2.068.599 7.062 7.062 0 0 0 2.142-.037 7.28 7.28 0 0 0 2.05-.671 7.13 7.13 0 0 0 1.815-1.325 7.032 7.032 0 0 0 1.579-2.359 7.28 7.28 0 0 0 .526-2.704c0-.92-.175-1.82-.526-2.704a7.033 7.033 0 0 0-1.579-2.359ZM2.76 2.801A7.855 7.855 0 0 1 5.5.968 8.386 8.386 0 0 1 8.64.35c1.064 0 2.11.205 3.139.617a7.844 7.844 0 0 1 2.74 1.833 7.855 7.855 0 0 1 1.833 2.74 8.387 8.387 0 0 1 .617 3.14 8.387 8.387 0 0 1-.617 3.139 8.2 8.2 0 0 1-1.833 2.74 7.861 7.861 0 0 1-2.105 1.542 8.265 8.265 0 0 1-4.864.835 8.249 8.249 0 0 1-2.395-.69 8.068 8.068 0 0 0-.535-.208 1.082 1.082 0 0 0-.336-.064c-.073 0-.154.01-.245.028-.09.018-.197.045-.318.081a1.026 1.026 0 0 1-.163.064c-.06.018-.121.033-.181.045l-.037.018a1.017 1.017 0 0 1-.163.064c-.06.018-.121.033-.182.045a2.378 2.378 0 0 1-.834.163 1.61 1.61 0 0 1-.49-.081 1.121 1.121 0 0 1-.454-.282v-.018a1.046 1.046 0 0 1-.3-.453 1.598 1.598 0 0 1-.081-.49 2.384 2.384 0 0 1 .163-.835 1.99 1.99 0 0 1 .046-.182c.018-.06.039-.114.063-.163v-.037c.024-.06.045-.12.064-.18.018-.061.039-.116.063-.164a3.51 3.51 0 0 0 .082-.318 1.26 1.26 0 0 0 .027-.244 1.08 1.08 0 0 0-.063-.336 8.042 8.042 0 0 0-.21-.536 8.35 8.35 0 0 1-.644-4.882c.14-.822.403-1.614.79-2.376A7.862 7.862 0 0 1 2.76 2.8Zm8.148 6.206c0-.218.075-.402.226-.554a.753.753 0 0 1 .554-.226c.218 0 .402.075.553.226a.753.753 0 0 1 .227.554.732.732 0 0 1-.227.535.753.753 0 0 1-.553.227.753.753 0 0 1-.554-.227.732.732 0 0 1-.226-.535Zm-3.104 0c0-.218.076-.402.227-.554a.753.753 0 0 1 .554-.226c.217 0 .402.075.553.226a.753.753 0 0 1 .227.554.732.732 0 0 1-.227.535.753.753 0 0 1-.553.227.753.753 0 0 1-.554-.227.732.732 0 0 1-.227-.535Zm-3.103 0c0-.218.076-.402.227-.554a.753.753 0 0 1 .554-.226c.217 0 .402.075.553.226a.753.753 0 0 1 .227.554.732.732 0 0 1-.227.535.753.753 0 0 1-.553.227.753.753 0 0 1-.554-.227.732.732 0 0 1-.227-.535Z" fill="#fff"/></svg>